<svg xmlns="http://www.w3.org/2000/svg" viewBox="0 0 14.82 14.49"><defs><style>.cls-1{fill:#c2cfd7;}</style></defs><g id="Layer_2" data-name="Layer 2"><g id="Section"><g id="Footer"><g id="Social_Icons" data-name="Social Icons"><g id="Youtube"><path class="cls-1" d="M12.11,6.9H2.71A2.71,2.71,0,0,0,0,9.61v2.18a2.7,2.7,0,0,0,2.71,2.7h9.4a2.7,2.7,0,0,0,2.71-2.7V9.61A2.71,2.71,0,0,0,12.11,6.9ZM4.68,8.6H3.81v4.34H3V8.6H2.09V7.86H4.68Zm2.47,4.34H6.4v-.41a1.54,1.54,0,0,1-.43.35.9.9,0,0,1-.43.12.45.45,0,0,1-.39-.17.78.78,0,0,1-.14-.5V9.19h.75v2.88a.31.31,0,0,0,0,.19.18.18,0,0,0,.15.06.35.35,0,0,0,.21-.08A.74.74,0,0,0,6.4,12V9.19h.75Zm2.72-.77a1,1,0,0,1-.17.61.64.64,0,0,1-.51.21.93.93,0,0,1-.39-.08.79.79,0,0,1-.32-.26v.29H7.72V7.86h.76V9.5a.86.86,0,0,1,.32-.26.72.72,0,0,1,.34-.09.66.66,0,0,1,.55.24,1.13,1.13,0,0,1,.18.7Zm2.6-1H11v.71a.84.84,0,0,0,.07.41.3.3,0,0,0,.26.11.3.3,0,0,0,.26-.1.76.76,0,0,0,.07-.42v-.18h.77v.2a1.21,1.21,0,0,1-.28.87,1.12,1.12,0,0,1-.84.28,1,1,0,0,1-.79-.31,1.17,1.17,0,0,1-.29-.84V10.2a1,1,0,0,1,.32-.79,1.09,1.09,0,0,1,.81-.31,1.07,1.07,0,0,1,.8.28,1.14,1.14,0,0,1,.27.82Zm-1.1-1.4a.29.29,0,0,0-.25.1.5.5,0,0,0-.08.34v.37h.66V10.2a.5.5,0,0,0-.08-.34A.28.28,0,0,0,11.37,9.76Zm-2.58,0a.32.32,0,0,0-.16,0,.48.48,0,0,0-.15.11v2.34a.59.59,0,0,0,.17.13.41.41,0,0,0,.19,0,.23.23,0,0,0,.2-.08.42.42,0,0,0,.06-.25V10.13A.42.42,0,0,0,9,9.84.29.29,0,0,0,8.79,9.74ZM3.94,5.6h.95V3.28L6,0H5L4.44,2.24H4.38L3.76,0H2.81L3.94,3.38Zm3.34.11a1.26,1.26,0,0,0,.91-.31,1.08,1.08,0,0,0,.32-.83V2.44a1,1,0,0,0-.33-.77,1.19,1.19,0,0,0-.86-.3,1.4,1.4,0,0,0-.92.28,1,1,0,0,0-.34.76V4.55a1.1,1.1,0,0,0,.34.84A1.22,1.22,0,0,0,7.28,5.71ZM6.93,2.38A.3.3,0,0,1,7,2.16a.39.39,0,0,1,.25-.08.46.46,0,0,1,.27.08.27.27,0,0,1,.1.22V4.63a.36.36,0,0,1-.1.27A.4.4,0,0,1,7.28,5,.36.36,0,0,1,7,4.9a.38.38,0,0,1-.09-.27ZM9.79,5.66a1,1,0,0,0,.49-.13,1.72,1.72,0,0,0,.48-.39V5.6h.85V1.47h-.85V4.61a1.09,1.09,0,0,1-.26.22.45.45,0,0,1-.23.09.21.21,0,0,1-.17-.07A.31.31,0,0,1,10,4.64V1.47H9.2V4.92a.84.84,0,0,0,.15.55A.51.51,0,0,0,9.79,5.66Z"/></g></g></g></g></g></svg>