<svg xmlns="http://www.w3.org/2000/svg" viewBox="0 0 14.94 14.94"><defs><style>.cls-1{fill:#c2cfd7;}</style></defs><g id="Layer_2" data-name="Layer 2"><g id="Section"><g id="Footer"><g id="Social_Icons" data-name="Social Icons"><g id="Dribble"><path class="cls-1" d="M14.79,6a7.55,7.55,0,0,0-1.13-2.67,7.59,7.59,0,0,0-2-2A7.11,7.11,0,0,0,10.38.59,7.68,7.68,0,0,0,9,.15,7.56,7.56,0,0,0,7.47,0,7.66,7.66,0,0,0,6,.15a7.83,7.83,0,0,0-1.4.44,7.11,7.11,0,0,0-1.27.69,7.59,7.59,0,0,0-2,2A7.11,7.11,0,0,0,.59,4.56,7.83,7.83,0,0,0,.15,6,7.66,7.66,0,0,0,0,7.47,7.48,7.48,0,0,0,.15,9a7.68,7.68,0,0,0,.44,1.41,7.11,7.11,0,0,0,.69,1.27,7.28,7.28,0,0,0,.91,1.1,7.93,7.93,0,0,0,1.1.91,7.81,7.81,0,0,0,1.27.69,7.07,7.07,0,0,0,1.4.43,7,7,0,0,0,1.51.16A6.89,6.89,0,0,0,9,14.78a7,7,0,0,0,1.41-.43,7.81,7.81,0,0,0,1.27-.69,7.93,7.93,0,0,0,1.1-.91,7.28,7.28,0,0,0,.91-1.1,7.81,7.81,0,0,0,.69-1.27A7.68,7.68,0,0,0,14.79,9a7.48,7.48,0,0,0,.15-1.5A7.66,7.66,0,0,0,14.79,6ZM7.47,1.09a6.35,6.35,0,0,1,4.21,1.59A6.82,6.82,0,0,1,8.35,5,34.27,34.27,0,0,0,6,1.27,6.16,6.16,0,0,1,7.47,1.09Zm-1.53.19ZM4.75,1.7A39.3,39.3,0,0,1,7.12,5.38a23.2,23.2,0,0,1-5.89.77A6.38,6.38,0,0,1,4.75,1.7Zm-2,10A6.37,6.37,0,0,1,1.09,7.47v-.2a23.61,23.61,0,0,0,6.55-.91c.19.36.36.72.52,1.08l-.25.08a10.1,10.1,0,0,0-5.19,4.21Zm4.75,2.12a6.38,6.38,0,0,1-3.92-1.36h0l-.14-.11a1.21,1.21,0,0,1,.14.1,8.69,8.69,0,0,1,5-4h0A27.52,27.52,0,0,1,10,13.34,6.3,6.3,0,0,1,7.47,13.85ZM11,12.76A26.78,26.78,0,0,0,9.79,8.2a9.51,9.51,0,0,1,4,.28A6.39,6.39,0,0,1,11,12.76ZM9.4,7.2l-.13-.33c-.14-.32-.28-.62-.43-.93a8.15,8.15,0,0,0,3.55-2.52,6.33,6.33,0,0,1,1.46,4A15.23,15.23,0,0,0,9.4,7.2Z"/></g></g></g></g></g></svg>