<svg xmlns="http://www.w3.org/2000/svg" viewBox="0 0 14.88 12.1"><defs><style>.cls-1{fill:#c2cfd7;}</style></defs><g id="Layer_2" data-name="Layer 2"><g id="Section"><g id="Footer"><g id="Social_Icons" data-name="Social Icons"><g id="Tweeter"><path class="cls-1" d="M14.88,1.43a5.67,5.67,0,0,1-1.75.48A3,3,0,0,0,14.47.22,6.17,6.17,0,0,1,12.53,1,3,3,0,0,0,10.3,0,3.06,3.06,0,0,0,7.25,3.05a3.19,3.19,0,0,0,.08.7A8.65,8.65,0,0,1,1,.56,3,3,0,0,0,.62,2.1,3.06,3.06,0,0,0,2,4.64,3.07,3.07,0,0,1,.6,4.25v0a3.06,3.06,0,0,0,2.45,3,3.1,3.1,0,0,1-.81.1,3.66,3.66,0,0,1-.57,0A3.06,3.06,0,0,0,4.52,9.46,6.11,6.11,0,0,1,.73,10.77a5.84,5.84,0,0,1-.73,0A8.62,8.62,0,0,0,4.68,12.1a8.63,8.63,0,0,0,8.69-8.69c0-.13,0-.27,0-.4A6.17,6.17,0,0,0,14.88,1.43Z"/></g></g></g></g></g></svg>