<svg xmlns="http://www.w3.org/2000/svg" viewBox="0 0 15.05 13.52"><defs><style>.cls-1{fill:#c2cfd7;}</style></defs><g id="Layer_2" data-name="Layer 2"><g id="Section"><g id="Footer"><g id="Social_Icons" data-name="Social Icons"><g id="Google"><path class="cls-1" d="M14.74,5.49H12.47V3.22a.31.31,0,0,0-.32-.31h-.64a.31.31,0,0,0-.32.31V5.49H8.92a.31.31,0,0,0-.31.31v.65a.32.32,0,0,0,.31.32h2.27V9a.31.31,0,0,0,.32.31h.64A.31.31,0,0,0,12.47,9V6.77h2.27a.32.32,0,0,0,.31-.32V5.8A.31.31,0,0,0,14.74,5.49Zm-7.63,2a2.62,2.62,0,0,1-.92-1c0-.27,0-.41.65-.89A3,3,0,0,0,8.09,3.27a3.09,3.09,0,0,0-.66-2h.32a.35.35,0,0,0,.18-.06l.9-.65A.31.31,0,0,0,8.94.22.31.31,0,0,0,8.64,0h-4A4.08,4.08,0,0,0,3.33.23a3.43,3.43,0,0,0-2.47,3A3.22,3.22,0,0,0,4.13,6.46a1.52,1.52,0,0,0-.06.42,1.5,1.5,0,0,0,.22.79H4.23a4.36,4.36,0,0,0-4,2.18,2.34,2.34,0,0,0-.24,1,1.84,1.84,0,0,0,.25.94,3.54,3.54,0,0,0,2.32,1.5,7.23,7.23,0,0,0,1.83.22A5.68,5.68,0,0,0,6,13.3a3.25,3.25,0,0,0,2.61-3A3.1,3.1,0,0,0,7.11,7.48ZM2.92,3.19A2.13,2.13,0,0,1,3.3,1.56a1.07,1.07,0,0,1,.81-.37h0A2.38,2.38,0,0,1,6,3.39a2.17,2.17,0,0,1-.4,1.66,1,1,0,0,1-.81.37h0C3.94,5.4,3.08,4.38,2.92,3.19Zm1.47,9.07a2.09,2.09,0,0,1-2.32-1.82c0-.94,1.19-1.77,2.55-1.77h0a3.43,3.43,0,0,1,.85.13L5.78,9c.63.43,1,.71,1.16,1.16a1.37,1.37,0,0,1,0,.34C7,11.66,6.11,12.26,4.39,12.26Z"/></g></g></g></g></g></svg>